<svg width="264" height="148" viewBox="0 0 264 148" fill="none" xmlns="http://www.w3.org/2000/svg">
<g clip-path="url(#clip0_37_4906)">
<path d="M89.798 56.0029C90.2844 56.3408 90.798 56.6377 91.3335 56.8905C91.9726 57.2174 93.0451 57.7648 93.1205 58.1479C93.2135 58.6537 93.1527 59.1757 92.946 59.6465C92.7255 60.1199 92.4948 60.5267 92.2951 60.8773C91.7536 61.8344 90.8468 63.438 92.2137 64.5548C92.5332 64.8507 93.085 65.2782 93.588 65.6643C93.2177 66.3117 93.0502 67.0553 93.1072 67.799C93.1857 68.3846 93.5033 68.9116 93.9844 69.2546C94.3128 69.4854 94.6634 69.6866 95.0081 69.8833C95.8839 70.3803 96.2256 70.6126 96.3395 71.0771C96.4217 71.6725 96.3712 72.2787 96.1916 72.8523C96.1043 73.2473 96.02 73.6437 95.9697 74.0357C95.8228 75.3839 95.9893 76.7478 96.4564 78.021C97.1218 80.3714 99.2478 82.0089 101.69 82.0521C102.098 82.0509 102.504 82.0078 102.903 81.9234C107.129 80.9216 111.294 79.6755 115.375 78.1911C118.708 80.1468 120.813 86.0936 121.362 88.3259C121.526 88.9858 122.119 89.449 122.798 89.4487L159.929 89.3451C160.4 89.3442 160.842 89.1195 161.12 88.7398C161.398 88.3602 161.479 87.8709 161.337 87.422C160.972 86.4197 160.467 85.4736 159.839 84.6113C159.484 84.0999 159.164 83.5652 158.882 83.0107C158.212 81.655 157.653 80.247 157.212 78.8006C156.367 75.9419 155.781 73.0128 155.462 70.049C155.066 66.6262 155.38 63.1587 156.383 59.8625C156.666 59.0949 156.274 58.2432 155.506 57.9601C154.738 57.677 153.887 58.0697 153.604 58.8373C152.442 62.5786 152.075 66.5216 152.528 70.4129C152.87 73.5532 153.492 76.6564 154.389 79.6852C154.876 81.2754 155.49 82.8238 156.225 84.3155C156.562 84.9854 156.946 85.6314 157.371 86.2489L157.471 86.3969L123.917 86.49C122.935 82.9809 121.152 79.7472 118.71 77.0432L120.041 76.5772C121.032 76.231 121.779 75.9707 122.162 75.8479C128.5 73.8434 131.668 70.9573 131.583 67.2679C131.563 66.4648 130.907 65.8238 130.103 65.8241H130.077C129.26 65.8435 128.614 66.5209 128.633 67.3374C128.668 68.8596 127.421 71.0801 121.272 73.0254C120.871 73.1541 120.099 73.4233 119.074 73.7813C117.974 74.1659 116.576 74.6541 115.035 75.1778H115.025C110.862 76.7038 106.614 77.988 102.303 79.024C100.923 79.289 99.5803 78.4192 99.2582 77.052C98.9421 76.2105 98.8232 75.3077 98.9105 74.4129C98.949 74.1023 99.02 73.7946 99.0881 73.4854C99.3895 72.4627 99.4337 71.3814 99.2168 70.3375C98.7868 68.9787 97.7867 67.8744 96.4771 67.3123L96.1709 67.1362C96.3306 66.8137 96.5213 66.5075 96.7404 66.222C96.9886 65.9076 97.0986 65.5059 97.0453 65.1089C96.9921 64.7119 96.7801 64.3534 96.4578 64.1155C96.1028 63.8551 95.2655 63.2279 94.6531 62.7338C94.7241 62.6051 94.801 62.4631 94.875 62.3344C95.1072 61.9276 95.372 61.4542 95.6309 60.9068C96.099 59.8699 96.2369 58.7141 96.0259 57.5961C95.6709 55.7914 93.9415 54.9068 92.6812 54.2618C92.2556 54.0595 91.8474 53.8225 91.4607 53.5532C91.1462 53.3406 90.8511 53.1005 90.5791 52.8357C90.5791 52.6109 90.8202 52.0665 91.9474 50.6952C94.597 47.2842 96.8687 43.5959 98.7227 39.695C99.0693 39.0839 99.2646 38.3986 99.2922 37.6965C99.1394 36.2095 98.3514 34.8612 97.1309 33.9982C96.5392 33.4494 95.9697 32.9316 95.9031 32.4494C95.9129 32.1002 95.9913 31.7564 96.1339 31.4375C96.375 30.8029 96.6531 30.1816 96.9327 29.5588C97.5393 28.308 98.0238 27.0017 98.3795 25.6578L98.5274 25.0277C98.8397 23.5487 99.2423 22.0904 99.733 20.6607C100.899 17.4421 102.705 14.4928 105.041 11.9905C107.871 8.99636 112.325 6.87799 118.301 5.69011C122.872 4.68677 127.509 4.01832 132.177 3.69008C140.529 3.27735 147.729 5.7907 155.487 11.8574C156.532 12.6714 157.513 13.5646 158.422 14.529C158.982 15.1242 159.918 15.1526 160.513 14.5926C161.109 14.0325 161.137 13.096 160.577 12.5009C159.564 11.4261 158.47 10.431 157.305 9.52448C148.951 2.99036 141.143 0.283225 132.026 0.735894C127.213 1.06976 122.43 1.75602 117.717 2.78918C111.047 4.12056 106.199 6.45935 102.89 9.95644C100.28 12.7496 98.2612 16.042 96.9564 19.6356C96.4236 21.1819 95.9859 22.7593 95.6457 24.359L95.4978 24.9833C95.182 26.1435 94.7586 27.2717 94.233 28.3531C93.9371 29.0277 93.6294 29.7023 93.3646 30.4005C93.0241 31.1777 92.8896 32.0296 92.9741 32.8739C93.2717 34.1997 94.0369 35.3739 95.1294 36.1817C95.8528 36.8444 96.3277 37.3118 96.3336 37.7187C96.2807 37.9435 96.196 38.1597 96.0821 38.3607C94.3106 42.0904 92.1406 45.6173 89.6101 48.8801C88.5376 50.1848 87.4133 51.707 87.65 53.2307C87.9638 54.4062 88.7381 55.4055 89.798 56.0029Z" fill="white"/>
<path d="M104.14 27.0211L104.288 26.3776C104.548 25.1416 104.878 23.9216 105.278 22.7237C106.17 20.2546 107.55 17.9905 109.337 16.0668C111.254 14.2593 113.601 12.9706 116.155 12.3226C116.671 12.1773 117.068 11.7645 117.192 11.2434C117.317 10.7224 117.151 10.1746 116.757 9.81132C116.363 9.44808 115.803 9.3262 115.294 9.49271C112.246 10.2849 109.453 11.8496 107.186 14.0357C105.126 16.248 103.533 18.8533 102.504 21.6955C102.06 23.0071 101.695 24.3438 101.409 25.6986L101.261 26.3391C101.135 26.8556 101.296 27.4002 101.682 27.7655C102.069 28.1308 102.621 28.2605 103.13 28.1054C103.639 27.9502 104.025 27.5339 104.142 27.0151L104.14 27.0211Z" fill="white"/>
<path d="M100.935 33.2347C101.752 33.2347 102.414 32.5724 102.414 31.7554C102.414 30.9384 101.752 30.2761 100.935 30.2761C100.118 30.2761 99.4553 30.9384 99.4553 31.7554C99.4553 32.5724 100.118 33.2347 100.935 33.2347Z" fill="white"/>
<path d="M168.116 17.1104C167.933 16.3306 167.163 15.8376 166.379 15.9979C161.837 17.0674 157.544 19.0021 153.735 21.6963C151.997 17.3852 149.491 13.4255 146.339 10.0097C146.061 9.72627 145.681 9.56636 145.284 9.56591C144.879 9.54699 144.487 9.71362 144.22 10.0186C141.095 13.4638 138.619 17.4461 136.912 21.7732C133.077 19.0396 128.745 17.08 124.159 16.0039C123.376 15.8433 122.606 16.3348 122.423 17.1133C121.695 20.684 121.505 24.3433 121.86 27.97C119.733 27.7654 117.591 27.759 115.462 27.9508C114.669 28.0415 114.09 28.7462 114.156 29.5425C114.201 30.0721 115.329 42.5723 123.92 49.6271C130.071 54.6775 138.211 55.4334 142.537 55.4334C143.572 55.4334 144.379 55.3905 144.904 55.3521C145.023 55.3924 145.147 55.4172 145.272 55.426C145.41 55.4187 145.547 55.3913 145.677 55.3447C146.154 55.3772 146.892 55.4157 147.883 55.4157C152.145 55.4157 160.442 54.6878 166.611 49.6316C175.196 42.5678 176.33 30.0692 176.379 29.5366C176.444 28.7414 175.867 28.0378 175.074 27.9463C172.947 27.7558 170.807 27.7662 168.682 27.9774C169.037 24.3471 168.846 20.6841 168.116 17.1104ZM165.648 28.3901C161.212 29.0436 157.021 30.839 153.488 33.6003C153.237 33.8 153.004 33.9997 152.771 34.2171L152.738 34.2497L152.72 34.2689C152.7 34.2896 152.679 34.3103 152.66 34.3325C150.169 36.6707 148.174 39.4859 146.793 42.6107C146.793 42.0959 146.778 41.5664 146.754 41.0279C146.849 37.0118 147.993 33.0904 150.072 29.6535C151.154 27.9946 152.477 26.5059 153.997 25.2362C157.396 22.4988 161.312 20.4738 165.511 19.282C165.958 22.2997 166.004 25.3633 165.648 28.3931V28.3901ZM145.294 13.2923C147.868 16.392 149.903 19.9026 151.312 23.677C148.515 26.171 146.428 29.361 145.263 32.9227C144.109 29.416 142.067 26.2673 139.337 23.7821C140.72 19.9757 142.733 16.4295 145.294 13.2923ZM125.035 19.282C129.279 20.4862 133.233 22.5445 136.654 25.3309C138.128 26.5786 139.41 28.0366 140.46 29.6579C142.538 33.0904 143.685 37.0051 143.788 41.0161C143.763 41.5545 143.751 42.0752 143.748 42.5797C142.371 39.516 140.407 36.7518 137.967 34.4435C137.896 34.3619 137.816 34.289 137.728 34.226C137.506 34.0278 137.299 33.8177 137.066 33.6343C133.523 30.8686 129.329 29.0588 124.886 28.3783C124.537 25.3528 124.587 22.2945 125.035 19.282ZM125.801 47.3386C119.821 42.4288 117.875 34.1728 117.312 30.7985C120.714 30.689 129.189 30.9819 135.188 35.9065C141.186 40.8311 143.114 49.0724 143.677 52.4467C140.284 52.5621 131.8 52.2632 125.801 47.3386ZM173.221 30.7955C172.663 34.1624 170.731 42.4125 164.731 47.3431C158.686 52.2973 150.234 52.565 146.856 52.4452C146.957 51.818 147.105 51.0354 147.315 50.1449C147.315 50.1138 147.328 50.0813 147.334 50.0502C148.406 44.873 150.99 40.1306 154.76 36.4243C154.808 36.381 154.853 36.3351 154.895 36.2867C155.043 36.158 155.191 36.0337 155.349 35.9021C158.793 33.2881 162.873 31.642 167.167 31.1343C169.171 30.8446 171.197 30.7313 173.221 30.7955Z" fill="white"/>
</g>
<path d="M8.06128 138.17C6.81712 138.17 5.70223 137.968 4.7166 137.564C3.73097 137.16 2.93923 136.562 2.34139 135.77C1.75971 134.978 1.45271 134.025 1.42039 132.91H5.83149C5.89613 133.54 6.11426 134.025 6.48589 134.364C6.85752 134.688 7.34226 134.849 7.9401 134.849C8.5541 134.849 9.03883 134.712 9.39431 134.437C9.74978 134.146 9.92752 133.75 9.92752 133.25C9.92752 132.829 9.7821 132.482 9.49126 132.207C9.21657 131.933 8.86918 131.707 8.44907 131.529C8.04512 131.351 7.46344 131.149 6.70402 130.923C5.60528 130.584 4.70852 130.244 4.01373 129.905C3.31894 129.566 2.7211 129.065 2.22021 128.402C1.71931 127.74 1.46886 126.875 1.46886 125.809C1.46886 124.225 2.04247 122.989 3.18968 122.101C4.33689 121.196 5.83149 120.743 7.67349 120.743C9.54781 120.743 11.0586 121.196 12.2058 122.101C13.353 122.989 13.967 124.233 14.0478 125.833H9.56397C9.53165 125.284 9.32968 124.856 8.95804 124.549C8.58641 124.225 8.10976 124.064 7.52807 124.064C7.02718 124.064 6.62323 124.201 6.31623 124.476C6.00923 124.734 5.85573 125.114 5.85573 125.615C5.85573 126.164 6.11426 126.593 6.63131 126.9C7.14836 127.207 7.95626 127.538 9.05499 127.893C10.1537 128.265 11.0424 128.62 11.721 128.96C12.4158 129.299 13.0137 129.792 13.5146 130.438C14.0155 131.084 14.2659 131.917 14.2659 132.935C14.2659 133.904 14.0155 134.785 13.5146 135.576C13.0298 136.368 12.3189 136.998 11.3817 137.467C10.4446 137.935 9.33776 138.17 8.06128 138.17ZM26.7778 124.306V127.748H32.328V130.947H26.7778V134.68H33.0551V138H22.6333V120.986H33.0551V124.306H26.7778ZM50.2394 138L46.7009 131.577H45.7071V138H41.5626V120.986H48.5186C49.8597 120.986 50.9988 121.22 51.936 121.689C52.8893 122.157 53.6003 122.804 54.0688 123.628C54.5374 124.435 54.7717 125.34 54.7717 126.342C54.7717 127.473 54.4486 128.483 53.8022 129.372C53.1721 130.26 52.2349 130.891 50.9908 131.262L54.9171 138H50.2394ZM45.7071 128.645H48.2762C49.0357 128.645 49.6012 128.459 49.9728 128.087C50.3606 127.716 50.5545 127.19 50.5545 126.512C50.5545 125.865 50.3606 125.356 49.9728 124.985C49.6012 124.613 49.0357 124.427 48.2762 124.427H45.7071V128.645ZM67.3347 124.306V127.748H72.885V130.947H67.3347V134.68H73.6121V138H63.1902V120.986H73.6121V124.306H67.3347ZM97.3403 138H93.1958L86.2641 127.505V138H82.1196V120.986H86.2641L93.1958 131.529V120.986H97.3403V138ZM110.306 120.986V138H106.161V120.986H110.306ZM131.366 120.986V124.306H126.858V138H122.713V124.306H118.205V120.986H131.366ZM153.853 120.986L147.964 132.377V138H143.819V132.377L137.93 120.986H142.632L145.928 128.111L149.2 120.986H153.853Z" fill="white"/>
<path d="M184.64 121.228V138H182.434V125.494L176.86 138H175.309L169.71 125.47V138H167.504V121.228H169.879L176.084 135.092L182.289 121.228H184.64ZM202.704 121.107V138H200.499V121.107H202.704ZM231.863 138H229.658L220.787 124.549V138H218.581V121.083H220.787L229.658 134.51V121.083H231.863V138ZM253.001 121.107C254.843 121.107 256.434 121.454 257.775 122.149C259.133 122.828 260.167 123.805 260.878 125.082C261.605 126.358 261.968 127.861 261.968 129.59C261.968 131.319 261.605 132.821 260.878 134.098C260.167 135.358 259.133 136.328 257.775 137.006C256.434 137.669 254.843 138 253.001 138H247.741V121.107H253.001ZM253.001 136.182C255.182 136.182 256.846 135.609 257.994 134.461C259.141 133.298 259.714 131.674 259.714 129.59C259.714 127.489 259.133 125.849 257.969 124.67C256.822 123.49 255.166 122.9 253.001 122.9H249.947V136.182H253.001Z" fill="white"/>
<defs>
<clipPath id="clip0_37_4906">
<rect width="88.7586" height="88.7586" fill="white" transform="translate(87.6206 0.689697)"/>
</clipPath>
</defs>
</svg>
